<?xml version="1.0" standalone="no"?>
<!DOCTYPE svg PUBLIC "-//W3C//DTD SVG 20010904//EN"
 "http://www.w3.org/TR/2001/REC-SVG-20010904/DTD/svg10.dtd">
<svg version="1.0" xmlns="http://www.w3.org/2000/svg"
 width="2346.000000pt" height="2346.000000pt" viewBox="0 0 2346.000000 2346.000000"
 preserveAspectRatio="xMidYMid meet">
<metadata>
Created by potrace 1.11, written by Peter Selinger 2001-2013
</metadata>
<g transform="translate(0.000000,2346.000000) scale(0.100000,-0.100000)"
fill="#000000" stroke="none">
<path d="M12700 19451 c0 -4 -22 -7 -50 -6 -30 1 -50 -3 -50 -9 0 -6 -4 -4
-10 4 -8 12 -10 12 -16 -4 -5 -14 -9 -15 -15 -4 -6 9 -9 10 -9 1 0 -7 -7 -10
-15 -7 -8 4 -23 0 -32 -7 -14 -12 -16 -12 -8 1 8 13 6 13 -8 2 -9 -8 -22 -10
-28 -6 -8 4 -9 3 -5 -4 4 -7 2 -12 -3 -12 -6 0 -11 6 -11 13 0 9 -3 8 -9 -2
-5 -7 -14 -10 -20 -7 -6 4 -11 3 -11 -3 0 -6 -18 -16 -40 -22 -21 -7 -37 -16
-34 -20 3 -5 -6 -9 -19 -9 -13 0 -33 -11 -45 -25 -13 -14 -27 -23 -33 -20 -5
4 -16 1 -24 -5 -8 -6 -19 -9 -24 -5 -7 4 -8 -1 -4 -11 4 -11 3 -15 -5 -10 -6
3 -23 4 -37 0 -20 -5 -23 -9 -13 -15 10 -7 8 -9 -7 -10 -11 -1 -23 -1 -28 0
-4 0 -6 -5 -5 -11 2 -7 -3 -12 -10 -10 -6 1 -11 -3 -10 -9 2 -6 -12 -19 -29
-28 -18 -10 -29 -22 -25 -26 4 -4 -3 -5 -16 -2 -20 5 -22 3 -10 -11 11 -13 11
-15 -4 -9 -12 4 -19 0 -23 -14 -4 -13 -12 -18 -21 -15 -8 3 -12 2 -9 -3 3 -5
-4 -12 -15 -16 -11 -3 -20 -11 -20 -16 0 -5 -7 -9 -15 -9 -8 0 -15 -9 -15 -21
0 -11 -4 -17 -10 -14 -5 3 -10 1 -10 -4 0 -6 6 -11 13 -11 8 0 7 -3 -3 -10 -8
-5 -16 -24 -17 -42 -1 -18 -3 -45 -4 -60 -1 -15 -6 -25 -11 -22 -12 8 -9 -9 6
-29 9 -12 11 -28 6 -50 -4 -18 -4 -41 0 -52 4 -11 5 -26 3 -32 -3 -7 0 -13 6
-13 7 0 9 -10 5 -26 -5 -21 -4 -25 6 -19 8 5 11 3 8 -6 -3 -8 3 -25 13 -38 11
-13 19 -34 19 -47 0 -13 5 -24 11 -24 8 0 9 -4 0 -13 -6 -8 -8 -17 -4 -20 12
-13 13 -70 1 -85 -10 -12 -10 -14 -1 -8 9 5 11 2 7 -8 -3 -9 -10 -16 -16 -16
-5 0 -6 -4 -3 -10 3 -5 1 -10 -4 -10 -6 0 -11 -6 -11 -14 0 -8 -7 -22 -16 -31
-9 -8 -17 -31 -18 -50 -2 -19 -8 -40 -14 -48 -9 -10 -9 -16 1 -26 9 -9 9 -14
-3 -22 -11 -8 -12 -12 -2 -16 6 -2 12 -11 12 -19 0 -8 -6 -14 -12 -14 -10 0
-10 -2 -2 -8 7 -4 13 -20 15 -37 2 -16 9 -39 16 -50 16 -25 17 -38 1 -29 -7 3
0 -5 15 -19 25 -22 26 -26 10 -30 -17 -4 -17 -5 0 -6 9 0 17 -8 17 -16 0 -9 7
-18 16 -22 11 -4 12 -8 4 -13 -8 -5 -2 -10 14 -14 14 -3 26 -13 26 -22 0 -20
51 -84 68 -84 6 0 12 -4 12 -8 0 -4 9 -8 20 -9 11 -1 20 4 20 10 0 7 4 6 10
-3 7 -11 10 -11 10 -2 0 8 7 6 21 -7 15 -14 20 -29 17 -57 -2 -24 2 -39 10
-42 10 -3 10 -7 0 -20 -11 -13 -10 -15 5 -9 9 3 17 2 17 -4 0 -5 -7 -12 -16
-16 -9 -3 -11 -8 -6 -12 6 -3 12 -19 16 -36 8 -47 18 -79 28 -92 6 -7 5 -14
-2 -18 -8 -5 -5 -12 7 -22 10 -8 13 -12 7 -9 -7 3 -14 -1 -18 -9 -3 -8 -2 -15
3 -15 4 0 8 -7 8 -15 0 -8 -5 -15 -11 -15 -6 0 -4 -5 4 -11 11 -8 12 -12 2
-16 -6 -2 -10 -9 -6 -14 3 -5 0 -9 -5 -9 -6 0 -11 6 -12 13 -1 6 -4 1 -8 -13
-4 -14 -20 -32 -36 -40 -53 -28 -65 -42 -54 -62 9 -16 7 -20 -10 -25 -20 -5
-21 -6 -4 -20 10 -8 13 -12 6 -9 -30 15 -48 -12 -29 -43 6 -10 5 -12 -2 -7 -7
4 -12 1 -12 -7 0 -8 -7 -20 -15 -27 -8 -7 -12 -17 -8 -24 4 -7 1 -6 -9 1 -18
15 -28 7 -28 -21 0 -15 -3 -17 -9 -8 -7 11 -9 11 -14 -1 -3 -8 0 -20 6 -26 8
-8 6 -11 -7 -11 -12 0 -16 -5 -12 -16 3 -8 2 -12 -4 -9 -6 3 -10 2 -10 -4 0
-6 -11 -13 -25 -17 -14 -3 -23 -10 -20 -14 3 -5 -3 -11 -14 -15 -12 -4 -17
-12 -14 -24 3 -13 -2 -21 -19 -27 -12 -4 -26 -7 -30 -6 -4 1 -10 -7 -13 -18
-4 -12 -12 -17 -21 -13 -8 3 -14 2 -12 -3 2 -5 0 -9 -4 -9 -14 0 -39 -45 -32
-56 4 -7 1 -10 -7 -7 -7 2 -25 -1 -38 -8 -14 -7 -29 -11 -33 -7 -5 3 -15 -3
-22 -13 -8 -11 -21 -15 -35 -11 -11 3 -19 2 -16 -3 2 -4 -5 -16 -17 -26 -12
-11 -18 -13 -14 -6 4 7 1 12 -8 12 -9 0 -13 -7 -11 -20 2 -11 -1 -23 -7 -26
-7 -4 -8 -2 -4 4 10 17 -5 14 -37 -6 -15 -10 -24 -23 -20 -27 5 -5 -1 -3 -11
5 -11 8 -17 10 -13 3 6 -10 -20 -21 -68 -29 -5 -1 -14 -3 -20 -4 -5 -1 -13 -2
-17 -1 -5 0 -8 -3 -8 -9 0 -5 0 -12 0 -15 -1 -10 -48 -55 -58 -55 -5 0 -8 -10
-5 -22 4 -19 3 -20 -7 -8 -9 12 -10 8 -5 -19 5 -22 4 -31 -3 -27 -6 3 -13 2
-17 -4 -3 -5 2 -10 11 -10 17 0 17 -1 1 -12 -9 -7 -18 -30 -19 -50 -2 -21 -6
-38 -10 -38 -4 0 -5 -12 -3 -27 2 -16 4 -28 5 -28 1 0 2 -18 4 -40 2 -45 -9
-75 -28 -75 -18 0 -39 -47 -23 -53 8 -3 5 -10 -8 -21 -11 -8 -15 -16 -8 -16 6
0 11 -9 10 -20 -1 -12 -7 -18 -14 -16 -9 4 -10 -1 -3 -20 7 -17 7 -23 0 -19
-6 3 -10 -2 -11 -12 0 -10 -2 -30 -4 -45 -2 -15 1 -30 6 -34 6 -4 5 -14 -4
-27 -7 -12 -12 -34 -11 -50 2 -15 -1 -25 -7 -22 -5 4 -9 -1 -9 -10 0 -9 4 -14
9 -11 12 8 9 -27 -3 -36 -6 -4 -6 -12 0 -20 15 -20 17 -67 3 -84 -10 -12 -9
-13 5 -8 12 5 15 2 10 -10 -3 -9 -2 -16 3 -16 6 0 9 -16 8 -35 -1 -20 5 -40
12 -47 10 -8 10 -14 2 -24 -8 -10 -8 -14 0 -14 6 0 11 -5 11 -11 0 -5 -6 -7
-12 -3 -10 6 -10 5 -1 -7 7 -9 14 -24 16 -35 1 -10 5 -23 8 -29 4 -5 6 -24 5
-42 0 -17 2 -29 7 -26 9 6 9 -1 -3 -31 -8 -21 -7 -24 8 -20 15 5 15 4 2 -8 -9
-7 -15 -23 -14 -35 1 -12 -2 -20 -6 -18 -4 3 -10 -11 -12 -31 -2 -19 0 -38 5
-41 6 -3 3 -11 -6 -18 -18 -13 -19 -75 -2 -75 6 0 2 -5 -9 -11 -15 -9 -16 -13
-5 -20 10 -6 11 -9 2 -9 -7 0 -13 -5 -13 -11 0 -5 5 -7 10 -4 6 3 10 -1 10 -9
0 -9 -4 -16 -9 -16 -10 0 -9 -19 2 -37 5 -7 5 -13 0 -13 -4 0 -1 -5 7 -10 13
-8 12 -10 -2 -10 -21 0 -22 -4 -5 -30 10 -17 9 -22 -2 -29 -9 -6 -10 -11 -2
-15 6 -4 11 -4 11 1 0 4 7 -3 16 -15 8 -12 12 -26 9 -32 -3 -6 1 -7 9 -4 9 3
16 1 16 -5 0 -6 -5 -11 -10 -11 -6 0 -4 -11 5 -23 17 -27 11 -87 -12 -100 -17
-10 -17 -27 1 -27 15 0 11 -40 -5 -50 -5 -3 -2 -18 6 -33 9 -17 10 -27 3 -27
-7 0 -6 -5 1 -14 10 -11 8 -15 -6 -19 -17 -4 -17 -5 0 -6 9 0 17 -6 17 -12 0
-5 -4 -7 -10 -4 -5 3 -10 -3 -10 -14 0 -12 5 -21 11 -21 8 0 7 -5 -2 -16 -10
-13 -10 -17 2 -26 11 -7 11 -11 2 -15 -9 -3 -10 -10 -4 -21 9 -18 9 -51 -1
-67 -3 -6 -5 -29 -4 -53 0 -23 -3 -42 -8 -42 -5 0 -3 -6 3 -14 9 -11 9 -15 -1
-18 -11 -4 -10 -8 0 -21 8 -9 10 -22 6 -28 -4 -7 -7 -27 -6 -46 1 -20 -3 -33
-11 -33 -8 0 -7 -4 3 -10 13 -8 13 -10 1 -10 -12 0 -12 -3 -3 -12 7 -7 12 -21
12 -33 0 -12 5 -26 11 -32 7 -7 7 -13 0 -17 -14 -9 -2 -36 15 -36 16 0 19 -16
4 -25 -5 -3 -10 -11 -10 -16 0 -6 4 -8 9 -5 5 3 9 -6 9 -20 0 -15 5 -30 12
-34 9 -6 9 -9 -1 -13 -10 -4 -9 -6 3 -6 11 -1 15 -6 12 -16 -4 -9 0 -15 9 -15
8 0 18 -7 21 -16 4 -10 2 -13 -6 -8 -7 4 -8 3 -4 -4 4 -7 15 -12 24 -12 15 -1
15 -2 -2 -15 -19 -14 -19 -15 -1 -15 10 0 15 -3 12 -7 -4 -3 1 -12 11 -20 16
-14 16 -14 -1 -9 -10 3 1 -13 25 -36 24 -23 50 -43 58 -44 8 -2 20 -11 27 -20
8 -11 13 -13 13 -5 0 7 5 9 10 6 6 -3 10 -10 10 -16 0 -5 -923 -10 -2427 -11
l-2428 -3 0 -970 0 -970 1535 -1 1535 -1 1 -1029 1 -1029 -80 -98 c-165 -204
-361 -402 -579 -583 -241 -201 -582 -408 -891 -540 -68 -30 -381 -141 -397
-142 -3 0 -25 -5 -50 -12 -25 -7 -52 -13 -60 -15 -8 -2 -33 -8 -55 -14 -22 -5
-53 -13 -70 -15 -16 -3 -41 -8 -55 -11 -22 -4 -76 -13 -125 -21 -11 -1 -37 -5
-57 -8 -80 -12 -106 -15 -203 -23 -175 -13 -607 -7 -735 12 -14 2 -52 6 -85
10 -68 7 -74 8 -210 31 -129 21 -129 21 -250 49 -167 40 -445 127 -537 169
-18 8 -62 27 -97 41 -208 86 -498 259 -713 425 -240 186 -520 487 -704 760
-168 248 -350 607 -439 865 -9 28 -21 59 -25 70 -39 98 -137 436 -153 525 -3
14 -10 43 -15 65 -6 22 -14 56 -17 75 -3 19 -8 42 -10 50 -2 8 -6 29 -9 45
-14 86 -17 101 -21 115 -3 8 -7 33 -10 55 -2 22 -7 51 -9 65 -3 14 -8 49 -11
79 -4 30 -8 61 -10 70 -1 9 -6 45 -9 81 -4 36 -9 76 -11 90 -2 14 -7 63 -10
110 -4 47 -8 99 -10 117 -24 202 -24 900 -1 1148 2 17 7 66 11 110 7 87 12
131 20 185 2 19 7 55 10 80 5 39 13 89 41 255 3 17 10 50 15 75 6 25 12 56 14
70 8 54 89 362 127 485 37 118 116 341 138 390 5 11 30 67 55 125 119 271 295
574 477 820 56 74 104 137 107 140 3 3 35 39 70 80 87 102 298 310 401 396
332 276 689 483 1070 619 58 21 114 41 125 45 64 26 363 100 460 114 22 4 47
8 55 11 8 2 38 6 65 10 28 3 64 8 80 11 202 33 685 38 880 9 17 -3 48 -7 70
-10 394 -54 800 -185 1155 -372 351 -186 654 -413 950 -713 l166 -167 99 115
c55 63 109 125 120 136 11 12 47 53 80 91 33 39 62 72 65 75 3 3 34 39 70 80
35 41 71 82 80 91 8 9 26 29 39 45 14 16 72 83 129 149 165 189 211 241 328
375 60 69 123 141 140 160 18 19 71 80 118 135 l86 99 -23 26 c-13 14 -43 48
-68 75 -119 135 -500 504 -597 578 -15 12 -29 24 -32 27 -27 33 -364 283 -518
384 -262 172 -650 375 -927 485 -265 105 -588 206 -781 245 -177 36 -328 65
-364 70 -185 23 -304 37 -383 43 -181 15 -816 7 -914 -11 -10 -2 -52 -7 -93
-11 -41 -4 -77 -8 -80 -10 -3 -2 -32 -6 -65 -10 -33 -3 -118 -18 -190 -32 -71
-14 -143 -27 -160 -30 -176 -28 -676 -186 -910 -287 -16 -7 -55 -24 -85 -37
-83 -36 -356 -172 -430 -214 -36 -21 -79 -45 -96 -55 -140 -81 -339 -210 -474
-309 -70 -51 -292 -224 -316 -246 -6 -5 -40 -35 -75 -65 -203 -176 -462 -439
-639 -650 -30 -36 -57 -67 -61 -70 -5 -5 -62 -78 -180 -233 -271 -356 -592
-911 -769 -1332 -24 -55 -50 -118 -60 -140 -10 -22 -29 -71 -44 -110 -15 -38
-31 -79 -36 -90 -46 -109 -213 -635 -234 -737 -3 -13 -11 -45 -20 -73 -8 -27
-17 -63 -20 -80 -6 -37 -11 -59 -24 -110 -6 -22 -13 -51 -16 -65 -2 -14 -9
-45 -15 -70 -5 -25 -12 -61 -16 -80 -3 -19 -10 -57 -15 -85 -13 -69 -19 -104
-26 -145 -2 -19 -9 -57 -14 -85 -5 -27 -12 -72 -15 -100 -3 -27 -8 -66 -11
-85 -3 -19 -7 -46 -9 -60 -2 -14 -7 -56 -11 -95 -3 -38 -8 -78 -10 -87 -1 -9
-6 -57 -9 -105 -4 -48 -9 -99 -10 -113 -27 -225 -27 -1117 0 -1445 2 -27 7
-86 10 -130 4 -44 8 -91 10 -105 2 -14 6 -61 10 -105 4 -44 8 -87 10 -95 1 -8
6 -40 9 -70 11 -96 17 -137 41 -300 2 -14 11 -68 20 -120 9 -52 18 -111 21
-130 3 -19 7 -37 9 -40 2 -3 6 -26 10 -50 3 -25 11 -65 17 -90 5 -25 11 -54
14 -65 4 -23 52 -229 60 -260 3 -11 7 -29 9 -40 3 -11 23 -85 45 -165 22 -80
43 -154 45 -165 12 -50 148 -444 198 -571 371 -943 929 -1750 1608 -2324 132
-112 153 -129 251 -204 77 -58 244 -174 290 -201 10 -5 66 -40 125 -76 391
-240 848 -433 1323 -558 63 -16 126 -32 140 -35 14 -2 66 -14 115 -24 82 -18
291 -54 390 -66 22 -3 58 -8 80 -10 22 -3 69 -8 105 -11 36 -3 88 -7 115 -10
146 -14 568 -20 735 -11 136 8 274 18 289 21 9 1 48 6 86 9 39 4 81 9 95 11
160 23 227 34 250 40 8 2 32 6 52 9 152 23 586 152 723 216 11 5 45 19 75 31
176 72 487 248 673 380 225 161 394 305 626 536 63 62 115 112 117 110 1 -1 5
-46 8 -99 3 -54 8 -112 10 -130 3 -18 7 -67 10 -108 3 -41 8 -100 11 -130 2
-30 7 -89 10 -130 3 -41 8 -93 9 -115 2 -22 7 -83 11 -135 3 -52 8 -106 10
-120 2 -14 7 -70 10 -125 4 -55 8 -101 10 -103 2 -3 1575 -5 1663 -3 l22 1 0
3744 c0 2737 3 3747 11 3752 6 3 15 0 20 -7 7 -12 9 -12 9 0 0 11 3 11 15 1
13 -11 14 -10 10 2 -4 11 1 15 19 14 14 -1 28 -4 31 -7 8 -9 55 2 55 12 0 5
14 7 30 5 17 -2 33 1 36 6 3 5 18 6 33 3 16 -3 39 0 56 9 22 12 32 12 43 4 8
-7 16 -8 20 -2 9 11 32 11 51 0 10 -7 12 -6 6 4 -6 10 -4 12 7 7 9 -3 21 0 28
6 9 8 11 9 7 1 -4 -7 2 -14 12 -17 17 -4 37 -57 22 -57 -9 0 -8 -42 1 -55 4
-6 3 -17 -2 -25 -10 -16 -2 -42 11 -34 8 5 13 -10 10 -30 -1 -5 5 -6 14 -2 9
3 13 2 10 -4 -3 -6 -1 -10 5 -10 6 0 8 -4 5 -10 -3 -5 1 -10 9 -10 9 0 16 -7
16 -15 0 -8 3 -14 8 -14 20 3 32 -2 32 -15 0 -19 75 -57 96 -49 11 4 15 2 10
-5 -3 -6 -2 -13 4 -17 5 -3 10 2 10 11 0 16 1 16 16 -2 8 -10 13 -13 9 -6 -9
18 3 15 32 -8 14 -11 32 -20 40 -20 8 0 11 -4 8 -10 -3 -5 2 -21 11 -35 13
-20 13 -25 3 -25 -11 0 -11 -2 1 -10 8 -5 11 -10 5 -10 -5 0 -3 -5 5 -10 13
-8 13 -10 -2 -10 -11 0 -15 -5 -12 -15 4 -8 1 -21 -4 -28 -14 -17 -11 -57 4
-57 6 0 14 -9 17 -21 4 -14 2 -19 -8 -15 -14 5 -15 -11 -2 -31 5 -7 4 -13 -2
-13 -5 0 -8 -11 -6 -25 1 -14 -3 -25 -9 -25 -7 0 -8 -3 -1 -8 13 -9 13 -27 1
-39 -5 -5 -6 -2 -1 6 5 9 4 12 -3 7 -16 -10 -15 -39 1 -31 6 4 4 0 -7 -9 -10
-8 -15 -20 -11 -26 4 -6 -1 -18 -11 -25 -11 -8 -14 -15 -8 -15 12 0 15 -30 2
-30 -4 0 -7 -3 -7 -7 1 -5 0 -10 -1 -13 -7 -20 -7 -41 1 -46 6 -3 3 -11 -6
-18 -14 -10 -15 -18 -7 -49 6 -21 7 -35 1 -32 -5 4 -9 -3 -9 -14 0 -12 5 -21
10 -21 6 0 10 -6 9 -12 -1 -7 -1 -26 0 -42 1 -22 5 -27 17 -22 14 5 15 4 4 -9
-10 -12 -9 -15 6 -15 17 0 17 -1 0 -13 -17 -12 -17 -14 -3 -20 10 -4 14 -13
11 -22 -4 -8 -1 -15 7 -15 7 0 9 -3 6 -7 -4 -3 -2 -12 4 -20 9 -10 8 -13 -2
-13 -11 0 -11 -2 1 -10 13 -9 13 -10 0 -10 -12 -1 -11 -4 4 -15 15 -11 17 -17
7 -29 -9 -11 -9 -16 0 -22 8 -5 9 -3 4 6 -5 9 -4 11 4 6 9 -6 9 -11 0 -23 -9
-10 -9 -17 -2 -21 5 -4 9 -19 9 -34 -1 -16 1 -28 5 -28 3 0 5 -11 4 -25 -2
-14 0 -25 4 -25 4 0 7 -9 7 -20 0 -11 -3 -20 -6 -20 -12 0 -3 -42 11 -52 11
-7 11 -11 1 -15 -10 -4 -10 -8 -1 -19 9 -11 8 -14 -2 -14 -11 0 -11 -2 1 -10
9 -6 15 -26 16 -53 0 -24 4 -49 8 -55 3 -6 2 -14 -4 -17 -8 -5 -7 -11 1 -21 9
-11 9 -14 -1 -14 -10 0 -10 -3 0 -15 10 -13 10 -19 -4 -34 -17 -18 -17 -19 0
-23 16 -3 17 -4 1 -20 -20 -20 -23 -53 -4 -41 6 4 4 -5 -6 -20 -12 -19 -14
-27 -5 -27 8 0 9 -3 3 -8 -13 -9 -16 -42 -4 -42 5 0 2 -14 -7 -31 -8 -17 -11
-29 -6 -25 11 7 10 -64 -1 -81 -5 -7 -4 -13 1 -13 10 0 8 -63 -4 -81 -5 -8 -3
-9 6 -4 10 6 12 2 7 -15 -3 -13 -1 -30 5 -37 6 -7 6 -13 1 -13 -5 0 -9 -9 -9
-19 0 -13 4 -17 11 -11 7 6 11 1 13 -16 1 -13 -4 -24 -11 -25 -6 0 -3 -4 8 -9
12 -5 14 -9 6 -9 -11 -1 -10 -5 5 -16 10 -8 15 -15 9 -15 -5 0 -3 -5 5 -10 12
-8 13 -12 2 -19 -11 -7 -11 -9 1 -14 10 -4 13 -13 10 -26 -3 -13 -1 -21 7 -21
7 0 10 -7 6 -16 -4 -9 -2 -22 2 -28 5 -6 10 -19 11 -28 1 -10 2 -27 3 -37 1
-11 6 -17 10 -15 4 3 8 0 8 -5 0 -6 -4 -11 -10 -11 -5 0 -10 -5 -10 -11 0 -6
7 -9 15 -5 13 4 13 2 5 -14 -13 -25 -13 -30 4 -24 11 4 14 -4 12 -35 -1 -23 1
-41 6 -41 4 0 5 -7 2 -15 -4 -8 -1 -22 6 -30 7 -8 9 -15 4 -15 -4 0 -3 -5 3
-11 6 -6 9 -18 6 -25 -3 -8 -1 -14 5 -14 5 0 12 -9 15 -21 4 -14 1 -19 -7 -16
-7 3 -12 -4 -12 -19 0 -13 2 -22 4 -19 2 2 10 -1 17 -8 10 -9 9 -14 -4 -24
-14 -11 -14 -12 3 -13 15 0 16 -3 6 -15 -7 -8 -8 -15 -3 -15 6 0 9 -11 8 -24
-2 -15 3 -27 12 -30 12 -5 13 -9 3 -21 -10 -12 -9 -15 6 -15 11 0 15 -3 9 -8
-15 -10 -10 -50 9 -71 14 -15 14 -20 4 -25 -10 -4 -10 -7 -1 -12 7 -3 9 -12 6
-20 -3 -8 -1 -14 4 -14 5 0 10 -7 10 -15 0 -8 -5 -15 -11 -15 -6 0 -4 -5 4
-10 13 -9 13 -10 0 -10 -12 -1 -12 -3 2 -11 12 -7 16 -20 14 -45 -1 -19 1 -37
6 -40 4 -3 8 -12 8 -20 0 -10 -5 -12 -12 -8 -9 5 -9 2 1 -9 11 -14 11 -17 0
-17 -10 -1 -9 -4 3 -10 11 -7 15 -19 12 -35 -3 -16 0 -25 8 -25 9 0 8 -3 -2
-10 -11 -7 -11 -10 -2 -10 7 0 10 -4 7 -10 -3 -5 0 -10 7 -10 9 0 9 -3 -2 -10
-8 -5 -10 -10 -4 -10 7 0 15 -7 18 -16 3 -8 2 -12 -4 -9 -6 3 -10 1 -10 -4 0
-6 5 -11 11 -11 8 0 7 -6 -2 -17 -15 -17 -14 -20 4 -41 6 -7 6 -12 1 -11 -22
4 -24 -2 -10 -23 18 -25 21 -42 6 -33 -5 3 -8 -9 -6 -29 4 -42 14 -59 28 -50
7 4 8 2 4 -5 -4 -7 2 -15 16 -20 13 -6 17 -10 8 -11 -12 0 -11 -3 3 -14 22
-17 23 -26 5 -37 -8 -5 -9 -9 -2 -9 16 0 24 -36 12 -48 -6 -6 -6 -12 1 -16 5
-4 8 -13 4 -21 -3 -9 0 -22 7 -30 9 -11 9 -15 1 -15 -9 0 -9 -5 -1 -20 8 -14
8 -20 0 -20 -7 0 -8 -5 -3 -12 4 -7 7 -30 6 -51 -2 -23 2 -37 10 -37 9 0 9 -2
0 -8 -9 -6 -10 -17 -4 -39 5 -17 6 -35 3 -39 -4 -4 2 -4 13 -1 19 7 19 6 2 -7
-15 -12 -16 -14 -2 -20 16 -6 16 -26 0 -38 -6 -5 -4 -8 5 -8 12 0 15 -12 15
-56 -1 -36 4 -62 13 -70 8 -8 9 -14 3 -14 -6 0 -10 -15 -8 -35 1 -19 7 -35 14
-35 6 0 9 -9 6 -20 -3 -11 -1 -20 4 -20 5 0 8 -13 5 -30 -3 -22 0 -32 13 -36
12 -5 13 -9 5 -14 -7 -4 -9 -13 -6 -19 4 -6 11 -9 15 -7 4 3 8 0 9 -7 0 -7 3
-28 7 -47 3 -19 7 -41 7 -47 1 -7 6 -13 11 -13 5 0 5 -6 -2 -13 -8 -10 -7 -17
1 -25 9 -9 9 -12 0 -12 -8 0 -5 -8 7 -21 26 -29 34 -59 12 -52 -12 4 -11 2 3
-9 10 -8 16 -20 13 -25 -4 -6 0 -14 9 -17 14 -5 14 -9 3 -23 -10 -12 -10 -14
-1 -9 8 5 12 1 12 -10 0 -9 8 -23 18 -30 16 -13 16 -14 -2 -7 -15 5 -17 3 -10
-8 5 -8 9 -18 9 -24 1 -5 7 -9 14 -7 7 1 11 -3 8 -10 -2 -7 0 -22 6 -33 6 -11
10 -35 8 -52 -1 -18 2 -33 8 -33 6 0 8 -6 5 -14 -3 -7 2 -16 10 -19 9 -4 16
-13 16 -22 0 -9 9 -15 23 -15 12 0 17 -4 12 -8 -17 -11 -12 -34 8 -41 22 -8
24 -21 5 -32 -10 -7 -11 -12 0 -29 8 -14 9 -20 1 -20 -8 0 -7 -5 2 -16 10 -13
10 -17 -2 -25 -11 -7 -11 -9 4 -9 9 0 17 -4 17 -10 0 -5 -5 -10 -12 -10 -6 0
-4 -6 6 -13 15 -11 17 -17 7 -35 -10 -19 -9 -22 6 -22 16 -1 16 -2 -2 -17 -16
-13 -17 -15 -2 -10 20 7 21 3 7 -23 -7 -13 -6 -21 5 -30 10 -8 12 -17 6 -29
-6 -10 -6 -23 0 -33 6 -11 6 -19 -1 -23 -6 -4 -7 -12 -3 -18 4 -6 8 -34 8 -61
1 -27 6 -51 13 -54 8 -2 8 -10 0 -28 -9 -20 -9 -27 1 -34 11 -6 11 -9 0 -13
-12 -5 -12 -7 -1 -15 8 -5 13 -12 13 -16 -3 -19 0 -27 8 -21 6 3 10 -4 10 -15
1 -11 1 -29 2 -40 0 -11 6 -20 12 -21 7 0 3 -4 -8 -9 l-20 -9 20 -1 c19 -1 19
-1 2 -14 -17 -13 -17 -15 -2 -23 13 -8 12 -11 -9 -23 -24 -12 -24 -14 -8 -27
9 -8 11 -11 3 -7 -10 5 -12 0 -6 -25 4 -19 3 -31 -4 -31 -7 0 -7 -8 -2 -22 6
-17 4 -26 -8 -35 -14 -11 -14 -14 -1 -23 14 -9 7 -15 -15 -10 -6 1 -5 -4 1
-10 14 -14 7 -50 -10 -50 -7 0 -6 -4 2 -9 11 -6 11 -17 4 -45 -6 -20 -7 -36
-4 -36 4 0 0 -5 -8 -10 -9 -6 -11 -10 -3 -10 7 0 10 -7 7 -15 -4 -8 -9 -13
-13 -11 -13 9 -2 -53 16 -86 2 -4 -2 -5 -9 -3 -9 4 -14 -2 -15 -15 -1 -11 2
-20 7 -20 4 0 7 -8 6 -17 -2 -10 2 -21 7 -25 7 -4 6 -12 -2 -22 -11 -13 -11
-16 -1 -16 9 0 11 -11 7 -35 -3 -19 -1 -37 4 -41 5 -3 8 -22 7 -42 -1 -21 3
-37 10 -40 7 -2 10 -8 6 -13 -3 -5 0 -9 6 -9 7 0 8 -6 1 -19 -8 -14 -7 -20 4
-25 8 -3 15 -11 15 -17 0 -7 8 -18 18 -25 12 -10 13 -13 3 -14 -11 0 -11 -3
-1 -15 7 -8 16 -12 21 -10 4 3 6 -4 4 -15 -2 -11 1 -20 7 -20 6 0 5 -7 -3 -17
-12 -15 -12 -16 4 -10 9 3 17 2 17 -3 0 -19 3 -25 19 -38 12 -10 13 -12 1 -6
-8 4 -5 -4 8 -18 12 -13 22 -33 22 -44 0 -16 2 -17 10 -4 8 13 10 12 10 -3 0
-10 4 -16 9 -13 5 4 12 -7 16 -24 4 -18 13 -30 23 -30 8 0 24 -7 34 -17 13
-12 18 -13 18 -3 0 9 6 8 20 -5 18 -16 20 -16 26 -1 5 14 8 14 18 3 13 -16 50
-32 41 -18 -3 5 -1 12 5 16 5 3 10 2 10 -4 0 -5 9 -9 20 -8 11 1 20 4 20 8 0
3 11 5 25 4 14 -2 27 1 31 6 3 5 14 9 25 9 10 0 19 5 19 11 0 5 4 8 9 5 5 -3
14 1 21 9 7 8 16 12 21 9 8 -5 13 10 10 30 -1 5 5 6 14 3 10 -4 15 0 15 12 0
10 7 24 15 31 8 7 12 17 8 23 -4 6 0 8 11 4 10 -4 15 -3 11 3 -3 5 5 20 17 32
13 13 24 26 24 31 1 4 2 12 3 18 0 5 6 7 11 4 6 -3 11 6 12 22 1 15 2 44 3 63
1 19 5 43 9 52 13 29 14 53 2 60 -7 5 -7 8 -1 8 14 0 6 73 -9 82 -7 5 -7 8 -1
8 15 0 16 40 2 40 -7 0 -6 4 3 10 8 5 10 10 5 10 -6 0 -12 14 -13 32 -2 17 -8
38 -14 45 -8 9 -7 13 1 13 8 0 7 6 -3 16 -19 19 -21 28 -3 18 9 -6 9 -5 0 7
-10 12 -10 18 -1 27 9 9 7 16 -7 32 -15 16 -16 22 -5 35 8 9 9 15 4 14 -20 -4
-24 2 -14 21 9 16 8 20 -7 21 -15 0 -15 2 -3 7 20 9 24 32 5 32 -8 0 -15 5
-15 11 0 5 5 7 10 4 6 -3 10 -2 10 4 0 5 -4 13 -10 16 -5 3 -10 12 -10 18 0 7
4 6 10 -3 6 -9 10 -10 10 -3 0 6 -5 15 -11 19 -8 4 -7 9 2 14 10 7 10 11 0 24
-8 9 -9 16 -3 16 11 0 10 39 -2 58 -4 7 -2 12 3 12 6 0 11 5 11 11 0 5 -4 8
-9 5 -5 -3 -8 5 -7 19 0 14 4 25 9 25 4 0 7 9 7 21 0 13 4 18 13 13 9 -6 9 -4
-1 8 -10 13 -10 17 3 22 9 3 15 14 14 23 -2 19 9 70 20 88 9 17 10 35 0 29 -5
-3 -9 1 -9 10 0 8 6 17 13 19 9 4 8 8 -3 16 -9 6 -10 11 -3 11 6 0 11 15 11
35 0 24 -4 33 -11 28 -7 -4 -6 1 2 11 13 15 13 19 0 27 -8 5 -9 9 -4 9 6 0 1
7 -9 15 -11 8 -16 15 -12 15 5 0 2 8 -5 17 -12 15 -12 16 3 10 12 -4 15 -2 11
8 -3 8 -9 13 -13 10 -5 -3 -11 -1 -15 5 -3 5 0 10 7 10 8 1 5 7 -7 17 -16 13
-17 15 -2 10 9 -4 17 -2 17 3 0 6 -4 10 -10 10 -5 0 -7 7 -4 15 4 8 1 15 -6
15 -7 0 -10 8 -7 20 3 11 0 20 -6 20 -8 0 -7 4 2 9 11 7 11 9 0 13 -8 3 -10 9
-4 19 13 19 15 39 5 39 -5 0 -8 27 -6 60 2 50 0 60 -12 55 -12 -4 -13 -3 -2
10 9 11 9 15 1 15 -7 0 -9 5 -6 10 4 6 3 10 -2 9 -22 -4 -32 2 -27 16 4 8 1
15 -5 15 -6 0 -8 7 -4 17 4 10 2 14 -4 10 -6 -4 -13 0 -17 8 -3 8 -1 17 4 20
4 3 11 -1 13 -7 3 -8 6 -6 6 5 1 9 -6 17 -14 17 -13 0 -14 4 -5 20 7 13 7 20
1 20 -6 0 -8 7 -5 15 4 8 11 12 18 9 6 -3 3 1 -7 9 -10 8 -14 18 -9 21 6 3 9
24 8 45 -1 22 2 37 7 34 5 -3 6 9 4 26 -3 17 -1 31 4 31 6 0 7 5 3 12 -11 17
-11 58 -1 58 5 0 4 7 -3 15 -10 12 -10 15 1 15 12 0 12 2 0 9 -11 7 -11 9 0
14 11 4 11 6 1 6 -10 1 -10 6 -2 21 6 11 7 20 3 20 -4 0 -2 5 5 12 7 7 12 17
12 22 0 6 -5 4 -11 -4 -9 -12 -10 -11 -6 5 3 11 8 29 13 39 5 14 4 17 -4 12
-7 -4 -13 -4 -13 1 -7 47 -6 63 1 58 10 -6 8 15 -3 33 -5 7 -3 12 5 12 10 0
10 2 -1 9 -8 5 -9 11 -3 15 6 3 9 20 7 36 -3 18 0 28 5 25 6 -4 10 1 10 10 0
10 -5 13 -12 9 -10 -6 -10 -5 -1 8 7 8 10 18 6 21 -3 4 0 13 7 22 10 12 10 15
-1 15 -12 0 -12 2 0 9 11 7 11 9 0 14 -12 5 -12 7 0 15 7 5 10 15 7 21 -4 6
-2 11 5 11 8 0 8 4 -1 16 -11 12 -11 15 1 12 9 -2 13 5 12 19 -2 13 2 23 8 23
5 0 8 4 4 9 -3 5 -2 12 3 15 9 5 8 43 -3 68 -4 9 -4 21 -1 27 4 5 1 13 -5 17
-9 5 -7 11 6 21 11 7 13 13 7 13 -7 0 -12 5 -12 11 0 5 5 7 10 4 6 -3 10 -2
10 4 0 5 -6 12 -12 14 -8 3 -6 6 5 6 9 1 17 6 17 12 0 5 -6 7 -12 4 -7 -4 -5
0 4 8 11 9 15 21 11 37 -4 16 -3 21 5 16 7 -4 12 -2 12 4 0 6 -7 13 -17 17
-13 5 -12 8 8 15 23 9 23 10 5 24 -11 8 -14 14 -7 14 7 0 9 5 6 10 -3 6 -2 10
4 10 5 0 8 12 5 26 -3 18 -1 23 7 18 8 -5 9 -3 3 7 -12 19 -14 69 -2 69 5 0 6
-6 2 -12 -4 -7 -3 -10 1 -5 14 12 13 48 -2 54 -7 3 -13 9 -13 15 0 5 5 6 12 2
8 -5 9 -2 5 9 -4 10 -1 17 5 17 9 0 9 3 0 12 -7 7 -8 17 -2 29 6 11 7 20 1 24
-6 3 -7 15 -4 28 10 43 12 98 2 92 -14 -9 -11 2 7 19 14 15 14 16 -3 16 -10 0
-14 4 -8 8 6 4 11 12 11 17 1 6 5 20 9 33 4 14 2 22 -5 22 -6 0 -8 5 -5 10 3
6 -1 17 -9 26 -9 8 -14 25 -12 37 2 12 -1 30 -6 41 -7 13 -7 16 1 12 18 -11
13 5 -6 21 -10 8 -12 12 -5 8 14 -7 17 11 2 20 -6 4 -8 11 -5 16 4 5 1 9 -4 9
-15 0 -14 37 1 46 8 5 7 10 -3 18 -17 13 -24 92 -9 101 6 4 7 12 3 18 -4 6 -6
24 -5 40 2 21 -1 26 -10 21 -8 -4 -10 -3 -5 2 5 5 13 10 18 10 22 3 23 5 9 14
-10 6 -11 10 -2 10 6 0 12 5 12 11 0 5 -3 8 -7 6 -5 -3 -9 9 -10 26 -1 27 0
29 8 12 8 -17 9 -16 6 8 -3 15 -1 27 2 27 4 0 6 23 5 50 -2 29 1 48 7 44 5 -3
8 -18 7 -32 -1 -15 1 -33 5 -39 4 -6 3 -14 -2 -18 -11 -6 -11 -45 0 -45 12 0
16 -49 5 -61 -8 -9 -8 -10 3 -4 11 6 13 2 9 -19 -3 -14 -2 -26 1 -26 3 0 6
-30 6 -66 0 -36 3 -68 7 -71 5 -2 6 -8 3 -13 -3 -5 -1 -11 5 -15 5 -3 10 -14
10 -23 0 -15 -2 -15 -10 -2 -14 21 -13 -3 2 -35 6 -14 15 -25 19 -25 4 0 5
-10 1 -22 -3 -12 -1 -19 5 -15 5 3 10 0 10 -8 0 -8 -5 -11 -11 -8 -6 3 -8 3
-4 -2 4 -4 2 -15 -5 -24 -10 -14 -10 -14 3 -5 39 30 40 13 39 -703 -1 -386 -6
-696 -11 -705 -5 -11 -5 -18 0 -18 13 0 12 -52 0 -67 -7 -8 -7 -13 -1 -13 11
0 11 -100 -1 -118 -4 -7 -3 -12 2 -12 5 0 9 -309 10 -757 0 -417 1 -959 1
-1205 l1 -448 965 0 965 0 0 1814 0 1813 120 154 c66 85 140 179 164 209 23
30 157 201 296 380 140 179 294 377 344 440 49 63 105 135 124 160 19 25 37
46 41 47 3 2 29 -30 56 -69 51 -73 523 -738 595 -838 21 -30 100 -140 174
-245 255 -360 401 -566 451 -635 28 -38 99 -138 158 -222 338 -478 527 -744
534 -753 8 -9 39 -53 151 -215 25 -36 48 -67 51 -70 4 -3 31 -41 61 -85 29
-44 57 -82 60 -85 4 -3 22 -27 40 -55 29 -43 232 -330 276 -390 8 -11 85 -119
170 -240 86 -121 182 -256 214 -300 31 -44 146 -206 255 -360 109 -154 209
-296 224 -315 15 -19 42 -59 61 -87 l35 -52 1269 -1 c1013 0 1266 3 1259 13
-6 6 -57 75 -113 152 -117 159 -180 243 -197 265 -7 8 -47 62 -89 120 -43 58
-107 146 -144 195 -36 50 -128 173 -203 275 -75 102 -140 190 -145 195 -4 6
-84 114 -177 240 -93 127 -185 251 -205 276 -19 26 -43 57 -52 70 -31 44 -249
339 -450 609 -63 85 -199 270 -303 410 -282 382 -439 594 -448 605 -4 6 -107
145 -229 310 -198 269 -303 411 -326 440 -4 6 -52 71 -107 145 -54 74 -149
203 -210 285 -61 83 -158 213 -215 290 -56 77 -136 185 -177 240 -41 55 -119
161 -174 235 -55 74 -109 146 -119 160 -10 14 -104 141 -209 283 -183 248
-222 300 -239 322 -4 6 -25 35 -47 65 -22 30 -44 60 -50 66 -5 6 -17 22 -25
34 -8 12 -45 62 -82 112 l-67 89 123 172 c67 95 198 279 291 410 94 131 177
248 185 260 8 12 80 114 160 227 80 113 190 268 245 345 54 77 111 158 127
180 16 22 57 78 90 125 32 47 66 94 74 105 16 23 101 143 136 193 13 18 29 39
35 47 7 7 13 18 13 24 0 6 3 11 8 11 4 0 18 17 32 38 26 39 174 250 187 267 5
6 33 45 63 88 65 92 195 275 213 299 6 10 22 33 35 50 35 49 366 515 537 757
83 116 201 282 263 369 62 86 121 168 130 182 24 37 180 257 222 315 20 28 95
132 166 233 71 101 156 221 189 267 33 46 96 135 140 197 274 387 555 784 562
793 5 6 73 102 153 215 79 113 148 210 152 215 13 17 81 112 118 165 19 28 54
76 77 108 23 31 43 62 43 67 0 7 -406 10 -1202 9 l-1202 -1 -20 -25 c-12 -14
-70 -95 -131 -181 -156 -223 -552 -780 -562 -792 -5 -5 -29 -39 -53 -74 -25
-36 -58 -84 -75 -107 -16 -23 -111 -156 -210 -296 -99 -139 -183 -257 -188
-263 -7 -9 -273 -383 -585 -823 -48 -68 -127 -178 -175 -245 -48 -67 -95 -133
-105 -147 -18 -27 -344 -487 -453 -640 -37 -52 -73 -100 -78 -107 -6 -7 -11
-16 -11 -22 0 -5 -3 -11 -8 -13 -7 -3 -109 -145 -647 -904 -110 -155 -342
-481 -515 -724 -173 -243 -327 -459 -341 -480 -14 -21 -48 -69 -76 -107 -27
-37 -94 -131 -148 -208 -55 -77 -141 -198 -193 -270 -51 -71 -110 -155 -130
-185 l-37 -55 -3 3333 -2 3332 -23 1 c-28 1 -1877 1 -1897 0 -13 -1 -15 -120
-15 -1013 l0 -1013 -38 -1 c-20 -1 -40 3 -44 9 -4 6 -1 7 7 2 9 -5 11 -4 6 4
-4 6 -16 9 -27 6 -10 -4 -24 -3 -31 2 -14 8 -32 13 -65 16 -13 1 -23 7 -23 13
0 8 -15 11 -40 10 -23 -1 -45 3 -51 10 -6 7 -17 10 -25 7 -8 -3 -14 0 -14 7 0
6 -4 9 -9 6 -5 -4 -12 0 -14 6 -3 8 -6 9 -6 2 -1 -14 -51 -5 -51 9 0 6 -3 7
-7 4 -3 -4 -17 2 -29 14 -15 14 -31 20 -47 17 -18 -3 -24 0 -23 11 1 10 -9 17
-26 19 -16 2 -28 6 -28 10 0 4 -12 8 -26 9 -15 0 -30 7 -35 15 -5 7 -9 9 -9 3
0 -5 -5 -2 -11 8 -6 9 -14 15 -19 12 -4 -3 -15 6 -24 20 -9 14 -20 24 -24 24
-23 -4 -52 2 -48 10 3 5 -8 11 -25 15 -27 5 -30 8 -19 21 7 8 9 15 4 15 -4 0
1 7 12 16 10 8 14 13 7 10 -6 -4 -14 -2 -18 4 -3 5 -1 10 5 10 6 0 8 5 4 12
-4 6 -3 8 4 4 6 -3 13 -2 17 4 3 5 2 10 -3 10 -5 0 -9 6 -9 14 0 8 6 12 14 9
16 -6 17 9 1 26 -8 9 -8 11 -2 8 8 -5 13 7 16 33 2 22 0 40 -4 40 -5 0 -8 5
-8 11 0 5 5 7 12 3 8 -5 9 0 5 15 -4 17 -3 20 7 11 10 -8 13 -4 10 15 -2 21 0
24 11 15 16 -13 20 -7 30 45 12 57 12 58 13 78 1 11 7 15 14 11 8 -5 9 -2 5 9
-4 10 -10 24 -13 32 -3 8 -1 15 5 15 7 0 11 8 9 18 -2 10 2 16 11 14 12 -3 12
0 1 12 -8 11 -9 16 -1 16 6 0 11 5 11 11 0 5 -4 7 -10 4 -5 -3 -10 -1 -10 4 0
6 8 11 18 11 13 0 14 2 3 9 -10 6 -10 10 -1 16 9 6 9 10 -1 16 -11 7 -10 9 4
9 10 0 15 5 12 10 -3 6 0 10 7 10 10 0 10 2 -1 9 -11 7 -11 9 0 14 10 4 10 6
2 6 -9 1 -10 8 -3 25 5 13 6 27 3 30 -4 3 -1 6 6 6 9 0 9 5 1 20 -6 11 -8 25
-5 30 3 5 1 11 -5 15 -6 4 -7 11 -4 17 5 8 1 9 -11 4 -15 -5 -16 -4 -6 8 8 9
8 15 2 18 -7 2 -5 14 4 32 16 31 13 40 -30 79 -11 10 -14 16 -7 12 6 -3 12 -1
12 4 0 6 -4 11 -10 11 -5 0 -10 11 -10 25 0 14 5 25 11 25 6 0 9 9 6 20 -3 11
-1 20 4 20 4 0 6 6 3 14 -3 7 2 16 10 19 9 4 16 13 16 22 0 8 8 15 18 16 11 1
9 4 -8 9 -18 6 -20 8 -7 9 11 1 15 5 11 13 -5 8 -2 9 11 4 15 -5 16 -4 5 9
-10 12 -10 15 0 15 10 0 10 3 0 15 -7 8 -9 15 -4 15 5 0 0 7 -10 15 -20 15
-20 15 0 16 10 0 13 3 7 6 -7 2 -13 13 -13 24 0 10 -5 19 -10 19 -6 0 -5 8 2
20 11 17 10 22 -2 30 -10 6 -11 10 -2 10 20 0 14 26 -10 44 -20 13 -20 15 -3
9 17 -6 18 -4 8 9 -7 8 -10 18 -6 21 3 4 2 7 -4 7 -9 0 -30 35 -31 54 0 5 -4
12 -9 15 -4 3 -15 15 -23 25 -13 18 -13 19 0 12 11 -6 11 -4 -1 6 -9 7 -15 21
-13 31 2 14 -1 16 -11 7 -11 -9 -13 -6 -11 15 2 14 1 23 -2 20 -3 -3 -10 5
-17 18 -6 12 -17 21 -23 19 -7 -1 -20 11 -30 26 -9 16 -20 29 -24 28 -3 -1
-17 9 -30 21 -28 26 -38 29 -49 11 -7 -10 -9 -10 -9 3 0 9 -18 24 -39 35 -22
10 -37 22 -35 26 5 8 -11 12 -29 9 -5 -1 -6 3 -2 9 3 5 2 10 -4 10 -6 0 -8 6
-5 14 3 8 0 17 -7 22 -8 4 -10 3 -5 -4 4 -7 3 -12 -3 -12 -5 0 -15 8 -20 18
-6 9 -11 13 -11 9 0 -4 -6 -2 -14 5 -8 7 -12 16 -10 20 2 4 -1 10 -7 14 -7 4
-9 3 -5 -4 3 -6 2 -13 -4 -17 -5 -3 -10 -1 -10 5 0 6 -4 8 -10 5 -5 -3 -10 -2
-10 4 0 6 -13 9 -30 7 -16 -2 -27 1 -24 5 3 5 0 9 -5 9 -6 0 -11 -6 -11 -12 0
-9 -4 -8 -10 2 -8 13 -13 13 -31 2 -16 -10 -19 -10 -13 -1 5 9 2 10 -9 6 -9
-3 -19 -1 -23 5 -4 7 -10 5 -16 -6 -5 -9 -14 -16 -21 -16 -8 0 -8 3 1 9 11 7
11 9 -2 14 -9 4 -16 3 -16 -2z m1290 -8831 c0 -5 -5 -10 -11 -10 -5 0 -7 5 -4
10 3 6 8 10 11 10 2 0 4 -4 4 -10z m-20 -3780 c0 -5 -5 -10 -11 -10 -5 0 -7 5
-4 10 3 6 8 10 11 10 2 0 4 -4 4 -10z m20 -470 c0 -5 -5 -10 -11 -10 -5 0 -7
5 -4 10 3 6 8 10 11 10 2 0 4 -4 4 -10z"/>
<path d="M11151 14745 c1 -19 18 -51 18 -35 0 8 -4 22 -9 30 -5 8 -9 11 -9 5z"/>
<path d="M13990 9499 c0 -5 5 -7 10 -4 6 3 10 8 10 11 0 2 -4 4 -10 4 -5 0
-10 -5 -10 -11z"/>
</g>
</svg>
